<svg xmlns="http://www.w3.org/2000/svg" viewBox="0 0 512 512" role="img" aria-label="Agar io like">
  <defs>
    <linearGradient id="bg" x1="0" y1="0" x2="1" y2="1">
      <stop offset="0" stop-color="#07131f"/>
      <stop offset=".52" stop-color="#101827"/>
      <stop offset="1" stop-color="#210536"/>
    </linearGradient>
    <radialGradient id="cell" cx=".35" cy=".3" r=".8">
      <stop offset="0" stop-color="#a7f3d0"/>
      <stop offset=".55" stop-color="#22d3ee"/>
      <stop offset="1" stop-color="#7c3aed"/>
    </radialGradient>
    <filter id="glow" x="-45%" y="-45%" width="190%" height="190%">
      <feGaussianBlur stdDeviation="9" result="blur"/>
      <feMerge>
        <feMergeNode in="blur"/>
        <feMergeNode in="SourceGraphic"/>
      </feMerge>
    </filter>
  </defs>
  <rect width="512" height="512" fill="url(#bg)"/>
  <g opacity=".22">
    <path d="M0 88h512M0 176h512M0 264h512M0 352h512M0 440h512M88 0v512M176 0v512M264 0v512M352 0v512M440 0v512" stroke="#38bdf8" stroke-width="3"/>
  </g>
  <circle cx="256" cy="258" r="104" fill="url(#cell)" stroke="#f8fafc" stroke-width="6" filter="url(#glow)"/>
  <circle cx="164" cy="162" r="26" fill="#facc15" opacity=".95"/>
  <circle cx="384" cy="166" r="18" fill="#fb7185" opacity=".95"/>
  <circle cx="370" cy="352" r="28" fill="#22c55e" opacity=".95"/>
  <circle cx="128" cy="344" r="15" fill="#c084fc" opacity=".95"/>
  <text x="256" y="70" text-anchor="middle" font-family="Arial,sans-serif" font-size="34" font-weight="900" letter-spacing="2" fill="#67e8f9">AGAR.IO</text>
  <text x="256" y="462" text-anchor="middle" font-family="Arial,sans-serif" font-size="24" font-weight="900" letter-spacing="2" fill="#facc15">HASTA 10P</text>
</svg>
