<svg xmlns="http://www.w3.org/2000/svg" viewBox="0 0 512 512" role="img" aria-label="Blackjack Drag">
  <defs>
    <linearGradient id="felt" x1="0" y1="0" x2="1" y2="1">
      <stop offset="0" stop-color="#102b1d"/>
      <stop offset="1" stop-color="#071014"/>
    </linearGradient>
    <filter id="shadow" x="-20%" y="-20%" width="140%" height="140%">
      <feDropShadow dx="0" dy="14" stdDeviation="8" flood-color="#000" flood-opacity=".55"/>
    </filter>
  </defs>
  <rect width="512" height="512" fill="#07040f"/>
  <rect x="42" y="62" width="428" height="388" rx="18" fill="url(#felt)" stroke="#d6b16f" stroke-width="8"/>
  <g filter="url(#shadow)">
    <g transform="rotate(-10 197 250)">
      <rect x="124" y="130" width="146" height="208" rx="14" fill="#f8fafc" stroke="#111827" stroke-width="6"/>
      <text x="148" y="168" font-family="Arial,sans-serif" font-size="30" font-weight="900" fill="#c81920">A</text>
      <path d="M197 218c-30-32-78 4-38 43l38 38 38-38c40-39-8-75-38-43z" fill="#c81920"/>
      <text x="246" y="322" font-family="Arial,sans-serif" font-size="30" font-weight="900" text-anchor="end" fill="#c81920">A</text>
    </g>
    <g transform="rotate(12 316 252)">
      <rect x="242" y="124" width="146" height="208" rx="14" fill="#f8fafc" stroke="#111827" stroke-width="6"/>
      <text x="266" y="162" font-family="Arial,sans-serif" font-size="30" font-weight="900" fill="#111827">K</text>
      <path d="M316 194l24 45h-17l20 40h-54l20-40h-17l24-45z" fill="#111827"/>
      <text x="364" y="316" font-family="Arial,sans-serif" font-size="30" font-weight="900" text-anchor="end" fill="#111827">K</text>
    </g>
  </g>
  <text x="256" y="82" text-anchor="middle" font-family="Arial,sans-serif" font-size="34" font-weight="900" fill="#67e8f9">BLACKJACK</text>
  <text x="256" y="446" text-anchor="middle" font-family="Arial,sans-serif" font-size="25" font-weight="900" fill="#facc15">F-COIN BET</text>
</svg>
