<svg xmlns="http://www.w3.org/2000/svg" viewBox="0 0 512 512" role="img" aria-label="Ajedrez Arcade">
  <defs>
    <linearGradient id="bg" x1="0" y1="0" x2="1" y2="1">
      <stop offset="0" stop-color="#031b1a"/>
      <stop offset="0.52" stop-color="#0f172a"/>
      <stop offset="1" stop-color="#111827"/>
    </linearGradient>
    <filter id="glow" x="-40%" y="-40%" width="180%" height="180%">
      <feGaussianBlur stdDeviation="8" result="blur"/>
      <feMerge>
        <feMergeNode in="blur"/>
        <feMergeNode in="SourceGraphic"/>
      </feMerge>
    </filter>
  </defs>
  <rect width="512" height="512" fill="url(#bg)"/>
  <g opacity=".28">
    <path d="M0 92h512M0 184h512M0 276h512M0 368h512M92 0v512M184 0v512M276 0v512M368 0v512" stroke="#2dd4bf" stroke-width="3"/>
  </g>
  <rect x="72" y="76" width="368" height="368" rx="28" fill="#020617" stroke="#2dd4bf" stroke-width="6"/>
  <g>
    <rect x="112" y="116" width="72" height="72" fill="#d7f7ee"/>
    <rect x="184" y="116" width="72" height="72" fill="#168071"/>
    <rect x="256" y="116" width="72" height="72" fill="#d7f7ee"/>
    <rect x="328" y="116" width="72" height="72" fill="#168071"/>
    <rect x="112" y="188" width="72" height="72" fill="#168071"/>
    <rect x="184" y="188" width="72" height="72" fill="#d7f7ee"/>
    <rect x="256" y="188" width="72" height="72" fill="#168071"/>
    <rect x="328" y="188" width="72" height="72" fill="#d7f7ee"/>
    <rect x="112" y="260" width="72" height="72" fill="#d7f7ee"/>
    <rect x="184" y="260" width="72" height="72" fill="#168071"/>
    <rect x="256" y="260" width="72" height="72" fill="#d7f7ee"/>
    <rect x="328" y="260" width="72" height="72" fill="#168071"/>
    <rect x="112" y="332" width="72" height="72" fill="#168071"/>
    <rect x="184" y="332" width="72" height="72" fill="#d7f7ee"/>
    <rect x="256" y="332" width="72" height="72" fill="#168071"/>
    <rect x="328" y="332" width="72" height="72" fill="#d7f7ee"/>
  </g>
  <text x="256" y="295" text-anchor="middle" font-family="Georgia,serif" font-size="146" font-weight="900" fill="#f8fafc" filter="url(#glow)">♚</text>
  <text x="256" y="56" text-anchor="middle" font-family="Arial,sans-serif" font-size="30" font-weight="900" letter-spacing="3" fill="#67e8f9">AJEDREZ</text>
  <text x="256" y="474" text-anchor="middle" font-family="Arial,sans-serif" font-size="23" font-weight="900" letter-spacing="2" fill="#facc15">2P + 8 ESP</text>
</svg>
